<svg xmlns="http://www.w3.org/2000/svg" width="398" height="251" viewBox="0 0 398 251" role="img" aria-label="本仓库最近 7 天按北京时间每两小时统计的提交活跃度">
  <rect width="100%" height="100%" rx="8" fill="#ffffff" stroke="#d0d7de"/>
  <text x="78" y="22" font-family="-apple-system, BlinkMacSystemFont, Segoe UI, sans-serif" font-size="14" font-weight="600" fill="#24292f">🟩 提交活跃度（最近 7 天 · 每格 2 小时）</text>
  <text x="78" y="36" font-family="-apple-system, BlinkMacSystemFont, Segoe UI, sans-serif" font-size="10" fill="#57606a">北京时间（GMT+8）</text>
  <text x="88" y="34" text-anchor="middle" font-family="-apple-system, BlinkMacSystemFont, Segoe UI, sans-serif" font-size="10" fill="#57606a">00</text><text x="113" y="34" text-anchor="middle" font-family="-apple-system, BlinkMacSystemFont, Segoe UI, sans-serif" font-size="10" fill="#57606a">02</text><text x="138" y="34" text-anchor="middle" font-family="-apple-system, BlinkMacSystemFont, Segoe UI, sans-serif" font-size="10" fill="#57606a">04</text><text x="163" y="34" text-anchor="middle" font-family="-apple-system, BlinkMacSystemFont, Segoe UI, sans-serif" font-size="10" fill="#57606a">06</text><text x="188" y="34" text-anchor="middle" font-family="-apple-system, BlinkMacSystemFont, Segoe UI, sans-serif" font-size="10" fill="#57606a">08</text><text x="213" y="34" text-anchor="middle" font-family="-apple-system, BlinkMacSystemFont, Segoe UI, sans-serif" font-size="10" fill="#57606a">10</text><text x="238" y="34" text-anchor="middle" font-family="-apple-system, BlinkMacSystemFont, Segoe UI, sans-serif" font-size="10" fill="#57606a">12</text><text x="263" y="34" text-anchor="middle" font-family="-apple-system, BlinkMacSystemFont, Segoe UI, sans-serif" font-size="10" fill="#57606a">14</text><text x="288" y="34" text-anchor="middle" font-family="-apple-system, BlinkMacSystemFont, Segoe UI, sans-serif" font-size="10" fill="#57606a">16</text><text x="313" y="34" text-anchor="middle" font-family="-apple-system, BlinkMacSystemFont, Segoe UI, sans-serif" font-size="10" fill="#57606a">18</text><text x="338" y="34" text-anchor="middle" font-family="-apple-system, BlinkMacSystemFont, Segoe UI, sans-serif" font-size="10" fill="#57606a">20</text><text x="363" y="34" text-anchor="middle" font-family="-apple-system, BlinkMacSystemFont, Segoe UI, sans-serif" font-size="10" fill="#57606a">22</text>
  <text x="69" y="60" text-anchor="end" font-family="-apple-system, BlinkMacSystemFont, Segoe UI, sans-serif" font-size="10" fill="#57606a">08-30</text><text x="69" y="85" text-anchor="end" font-family="-apple-system, BlinkMacSystemFont, Segoe UI, sans-serif" font-size="10" fill="#57606a">08-31</text><text x="69" y="110" text-anchor="end" font-family="-apple-system, BlinkMacSystemFont, Segoe UI, sans-serif" font-size="10" fill="#57606a">09-01</text><text x="69" y="135" text-anchor="end" font-family="-apple-system, BlinkMacSystemFont, Segoe UI, sans-serif" font-size="10" fill="#57606a">09-02</text><text x="69" y="160" text-anchor="end" font-family="-apple-system, BlinkMacSystemFont, Segoe UI, sans-serif" font-size="10" fill="#57606a">09-03</text><text x="69" y="185" text-anchor="end" font-family="-apple-system, BlinkMacSystemFont, Segoe UI, sans-serif" font-size="10" fill="#57606a">09-04</text><text x="69" y="210" text-anchor="end" font-family="-apple-system, BlinkMacSystemFont, Segoe UI, sans-serif" font-size="10" fill="#57606a">09-05</text>
  <rect x="78" y="46" width="20" height="20" rx="3" fill="#ebedf0"><title>2026-08-30 00:00–02:00 GMT+8: 0 commits</title></rect><rect x="103" y="46" width="20" height="20" rx="3" fill="#ebedf0"><title>2026-08-30 02:00–04:00 GMT+8: 0 commits</title></rect><rect x="128" y="46" width="20" height="20" rx="3" fill="#ebedf0"><title>2026-08-30 04:00–06:00 GMT+8: 0 commits</title></rect><rect x="153" y="46" width="20" height="20" rx="3" fill="#ebedf0"><title>2026-08-30 06:00–08:00 GMT+8: 0 commits</title></rect><rect x="178" y="46" width="20" height="20" rx="3" fill="#ebedf0"><title>2026-08-30 08:00–10:00 GMT+8: 0 commits</title></rect><rect x="203" y="46" width="20" height="20" rx="3" fill="#ebedf0"><title>2026-08-30 10:00–12:00 GMT+8: 0 commits</title></rect><rect x="228" y="46" width="20" height="20" rx="3" fill="#9be9a8"><title>2026-08-30 12:00–14:00 GMT+8: 1 commits</title></rect><rect x="253" y="46" width="20" height="20" rx="3" fill="#ebedf0"><title>2026-08-30 14:00–16:00 GMT+8: 0 commits</title></rect><rect x="278" y="46" width="20" height="20" rx="3" fill="#ebedf0"><title>2026-08-30 16:00–18:00 GMT+8: 0 commits</title></rect><rect x="303" y="46" width="20" height="20" rx="3" fill="#ebedf0"><title>2026-08-30 18:00–20:00 GMT+8: 0 commits</title></rect><rect x="328" y="46" width="20" height="20" rx="3" fill="#ebedf0"><title>2026-08-30 20:00–22:00 GMT+8: 0 commits</title></rect><rect x="353" y="46" width="20" height="20" rx="3" fill="#ebedf0"><title>2026-08-30 22:00–00:00 GMT+8: 0 commits</title></rect><rect x="78" y="71" width="20" height="20" rx="3" fill="#ebedf0"><title>2026-08-31 00:00–02:00 GMT+8: 0 commits</title></rect><rect x="103" y="71" width="20" height="20" rx="3" fill="#ebedf0"><title>2026-08-31 02:00–04:00 GMT+8: 0 commits</title></rect><rect x="128" y="71" width="20" height="20" rx="3" fill="#ebedf0"><title>2026-08-31 04:00–06:00 GMT+8: 0 commits</title></rect><rect x="153" y="71" width="20" height="20" rx="3" fill="#ebedf0"><title>2026-08-31 06:00–08:00 GMT+8: 0 commits</title></rect><rect x="178" y="71" width="20" height="20" rx="3" fill="#ebedf0"><title>2026-08-31 08:00–10:00 GMT+8: 0 commits</title></rect><rect x="203" y="71" width="20" height="20" rx="3" fill="#ebedf0"><title>2026-08-31 10:00–12:00 GMT+8: 0 commits</title></rect><rect x="228" y="71" width="20" height="20" rx="3" fill="#9be9a8"><title>2026-08-31 12:00–14:00 GMT+8: 1 commits</title></rect><rect x="253" y="71" width="20" height="20" rx="3" fill="#ebedf0"><title>2026-08-31 14:00–16:00 GMT+8: 0 commits</title></rect><rect x="278" y="71" width="20" height="20" rx="3" fill="#ebedf0"><title>2026-08-31 16:00–18:00 GMT+8: 0 commits</title></rect><rect x="303" y="71" width="20" height="20" rx="3" fill="#ebedf0"><title>2026-08-31 18:00–20:00 GMT+8: 0 commits</title></rect><rect x="328" y="71" width="20" height="20" rx="3" fill="#ebedf0"><title>2026-08-31 20:00–22:00 GMT+8: 0 commits</title></rect><rect x="353" y="71" width="20" height="20" rx="3" fill="#ebedf0"><title>2026-08-31 22:00–00:00 GMT+8: 0 commits</title></rect><rect x="78" y="96" width="20" height="20" rx="3" fill="#ebedf0"><title>2026-09-01 00:00–02:00 GMT+8: 0 commits</title></rect><rect x="103" y="96" width="20" height="20" rx="3" fill="#ebedf0"><title>2026-09-01 02:00–04:00 GMT+8: 0 commits</title></rect><rect x="128" y="96" width="20" height="20" rx="3" fill="#ebedf0"><title>2026-09-01 04:00–06:00 GMT+8: 0 commits</title></rect><rect x="153" y="96" width="20" height="20" rx="3" fill="#ebedf0"><title>2026-09-01 06:00–08:00 GMT+8: 0 commits</title></rect><rect x="178" y="96" width="20" height="20" rx="3" fill="#ebedf0"><title>2026-09-01 08:00–10:00 GMT+8: 0 commits</title></rect><rect x="203" y="96" width="20" height="20" rx="3" fill="#ebedf0"><title>2026-09-01 10:00–12:00 GMT+8: 0 commits</title></rect><rect x="228" y="96" width="20" height="20" rx="3" fill="#9be9a8"><title>2026-09-01 12:00–14:00 GMT+8: 1 commits</title></rect><rect x="253" y="96" width="20" height="20" rx="3" fill="#ebedf0"><title>2026-09-01 14:00–16:00 GMT+8: 0 commits</title></rect><rect x="278" y="96" width="20" height="20" rx="3" fill="#ebedf0"><title>2026-09-01 16:00–18:00 GMT+8: 0 commits</title></rect><rect x="303" y="96" width="20" height="20" rx="3" fill="#ebedf0"><title>2026-09-01 18:00–20:00 GMT+8: 0 commits</title></rect><rect x="328" y="96" width="20" height="20" rx="3" fill="#ebedf0"><title>2026-09-01 20:00–22:00 GMT+8: 0 commits</title></rect><rect x="353" y="96" width="20" height="20" rx="3" fill="#ebedf0"><title>2026-09-01 22:00–00:00 GMT+8: 0 commits</title></rect><rect x="78" y="121" width="20" height="20" rx="3" fill="#ebedf0"><title>2026-09-02 00:00–02:00 GMT+8: 0 commits</title></rect><rect x="103" y="121" width="20" height="20" rx="3" fill="#ebedf0"><title>2026-09-02 02:00–04:00 GMT+8: 0 commits</title></rect><rect x="128" y="121" width="20" height="20" rx="3" fill="#ebedf0"><title>2026-09-02 04:00–06:00 GMT+8: 0 commits</title></rect><rect x="153" y="121" width="20" height="20" rx="3" fill="#ebedf0"><title>2026-09-02 06:00–08:00 GMT+8: 0 commits</title></rect><rect x="178" y="121" width="20" height="20" rx="3" fill="#ebedf0"><title>2026-09-02 08:00–10:00 GMT+8: 0 commits</title></rect><rect x="203" y="121" width="20" height="20" rx="3" fill="#ebedf0"><title>2026-09-02 10:00–12:00 GMT+8: 0 commits</title></rect><rect x="228" y="121" width="20" height="20" rx="3" fill="#9be9a8"><title>2026-09-02 12:00–14:00 GMT+8: 1 commits</title></rect><rect x="253" y="121" width="20" height="20" rx="3" fill="#ebedf0"><title>2026-09-02 14:00–16:00 GMT+8: 0 commits</title></rect><rect x="278" y="121" width="20" height="20" rx="3" fill="#ebedf0"><title>2026-09-02 16:00–18:00 GMT+8: 0 commits</title></rect><rect x="303" y="121" width="20" height="20" rx="3" fill="#ebedf0"><title>2026-09-02 18:00–20:00 GMT+8: 0 commits</title></rect><rect x="328" y="121" width="20" height="20" rx="3" fill="#ebedf0"><title>2026-09-02 20:00–22:00 GMT+8: 0 commits</title></rect><rect x="353" y="121" width="20" height="20" rx="3" fill="#ebedf0"><title>2026-09-02 22:00–00:00 GMT+8: 0 commits</title></rect><rect x="78" y="146" width="20" height="20" rx="3" fill="#ebedf0"><title>2026-09-03 00:00–02:00 GMT+8: 0 commits</title></rect><rect x="103" y="146" width="20" height="20" rx="3" fill="#ebedf0"><title>2026-09-03 02:00–04:00 GMT+8: 0 commits</title></rect><rect x="128" y="146" width="20" height="20" rx="3" fill="#ebedf0"><title>2026-09-03 04:00–06:00 GMT+8: 0 commits</title></rect><rect x="153" y="146" width="20" height="20" rx="3" fill="#ebedf0"><title>2026-09-03 06:00–08:00 GMT+8: 0 commits</title></rect><rect x="178" y="146" width="20" height="20" rx="3" fill="#ebedf0"><title>2026-09-03 08:00–10:00 GMT+8: 0 commits</title></rect><rect x="203" y="146" width="20" height="20" rx="3" fill="#ebedf0"><title>2026-09-03 10:00–12:00 GMT+8: 0 commits</title></rect><rect x="228" y="146" width="20" height="20" rx="3" fill="#9be9a8"><title>2026-09-03 12:00–14:00 GMT+8: 1 commits</title></rect><rect x="253" y="146" width="20" height="20" rx="3" fill="#ebedf0"><title>2026-09-03 14:00–16:00 GMT+8: 0 commits</title></rect><rect x="278" y="146" width="20" height="20" rx="3" fill="#ebedf0"><title>2026-09-03 16:00–18:00 GMT+8: 0 commits</title></rect><rect x="303" y="146" width="20" height="20" rx="3" fill="#ebedf0"><title>2026-09-03 18:00–20:00 GMT+8: 0 commits</title></rect><rect x="328" y="146" width="20" height="20" rx="3" fill="#ebedf0"><title>2026-09-03 20:00–22:00 GMT+8: 0 commits</title></rect><rect x="353" y="146" width="20" height="20" rx="3" fill="#ebedf0"><title>2026-09-03 22:00–00:00 GMT+8: 0 commits</title></rect><rect x="78" y="171" width="20" height="20" rx="3" fill="#ebedf0"><title>2026-09-04 00:00–02:00 GMT+8: 0 commits</title></rect><rect x="103" y="171" width="20" height="20" rx="3" fill="#ebedf0"><title>2026-09-04 02:00–04:00 GMT+8: 0 commits</title></rect><rect x="128" y="171" width="20" height="20" rx="3" fill="#ebedf0"><title>2026-09-04 04:00–06:00 GMT+8: 0 commits</title></rect><rect x="153" y="171" width="20" height="20" rx="3" fill="#ebedf0"><title>2026-09-04 06:00–08:00 GMT+8: 0 commits</title></rect><rect x="178" y="171" width="20" height="20" rx="3" fill="#ebedf0"><title>2026-09-04 08:00–10:00 GMT+8: 0 commits</title></rect><rect x="203" y="171" width="20" height="20" rx="3" fill="#ebedf0"><title>2026-09-04 10:00–12:00 GMT+8: 0 commits</title></rect><rect x="228" y="171" width="20" height="20" rx="3" fill="#9be9a8"><title>2026-09-04 12:00–14:00 GMT+8: 1 commits</title></rect><rect x="253" y="171" width="20" height="20" rx="3" fill="#ebedf0"><title>2026-09-04 14:00–16:00 GMT+8: 0 commits</title></rect><rect x="278" y="171" width="20" height="20" rx="3" fill="#ebedf0"><title>2026-09-04 16:00–18:00 GMT+8: 0 commits</title></rect><rect x="303" y="171" width="20" height="20" rx="3" fill="#ebedf0"><title>2026-09-04 18:00–20:00 GMT+8: 0 commits</title></rect><rect x="328" y="171" width="20" height="20" rx="3" fill="#ebedf0"><title>2026-09-04 20:00–22:00 GMT+8: 0 commits</title></rect><rect x="353" y="171" width="20" height="20" rx="3" fill="#ebedf0"><title>2026-09-04 22:00–00:00 GMT+8: 0 commits</title></rect><rect x="78" y="196" width="20" height="20" rx="3" fill="#ebedf0"><title>2026-09-05 00:00–02:00 GMT+8: 0 commits</title></rect><rect x="103" y="196" width="20" height="20" rx="3" fill="#ebedf0"><title>2026-09-05 02:00–04:00 GMT+8: 0 commits</title></rect><rect x="128" y="196" width="20" height="20" rx="3" fill="#ebedf0"><title>2026-09-05 04:00–06:00 GMT+8: 0 commits</title></rect><rect x="153" y="196" width="20" height="20" rx="3" fill="#ebedf0"><title>2026-09-05 06:00–08:00 GMT+8: 0 commits</title></rect><rect x="178" y="196" width="20" height="20" rx="3" fill="#ebedf0"><title>2026-09-05 08:00–10:00 GMT+8: 0 commits</title></rect><rect x="203" y="196" width="20" height="20" rx="3" fill="#ebedf0"><title>2026-09-05 10:00–12:00 GMT+8: 0 commits</title></rect><rect x="228" y="196" width="20" height="20" rx="3" fill="#ebedf0"><title>2026-09-05 12:00–14:00 GMT+8: 0 commits</title></rect><rect x="253" y="196" width="20" height="20" rx="3" fill="#ebedf0"><title>2026-09-05 14:00–16:00 GMT+8: 0 commits</title></rect><rect x="278" y="196" width="20" height="20" rx="3" fill="#ebedf0"><title>2026-09-05 16:00–18:00 GMT+8: 0 commits</title></rect><rect x="303" y="196" width="20" height="20" rx="3" fill="#ebedf0"><title>2026-09-05 18:00–20:00 GMT+8: 0 commits</title></rect><rect x="328" y="196" width="20" height="20" rx="3" fill="#ebedf0"><title>2026-09-05 20:00–22:00 GMT+8: 0 commits</title></rect><rect x="353" y="196" width="20" height="20" rx="3" fill="#ebedf0"><title>2026-09-05 22:00–00:00 GMT+8: 0 commits</title></rect>
</svg>
